<svg width="16" height="16" viewBox="0 0 16 16" fill="none" xmlns="http://www.w3.org/2000/svg">
<path fill-rule="evenodd" clip-rule="evenodd" d="M7.99992 1.33333C4.33325 1.33333 1.33325 4.33333 1.33325 8C1.33325 11.6667 4.33325 14.6667 7.99992 14.6667C11.6666 14.6667 14.6666 11.6667 14.6666 8C14.6666 4.33333 11.6666 1.33333 7.99992 1.33333ZM7.99992 13.3333C5.05992 13.3333 2.66659 10.94 2.66659 7.99999C2.66659 5.05999 5.05992 2.66666 7.99992 2.66666C10.9399 2.66666 13.3333 5.05999 13.3333 7.99999C13.3333 10.94 10.9399 13.3333 7.99992 13.3333ZM7.33325 4.66666H8.33325V8.13333L11.3333 9.93333L10.7999 10.8L7.33325 8.66666V4.66666Z" fill="black"/>
</svg>
